<mxfile host="Electron" agent="Mozilla/5.0 (Windows NT 10.0; Win64; x64) AppleWebKit/537.36 (KHTML, like Gecko) draw.io/24.7.17 Chrome/128.0.6613.36 Electron/32.0.1 Safari/537.36" version="24.7.17">
  <diagram name="第 1 页" id="7-TyyusMR2jaqwP33Saa">
    <mxGraphModel dx="1635" dy="740" grid="0" gridSize="10" guides="1" tooltips="1" connect="1" arrows="1" fold="1" page="0" pageScale="1" pageWidth="1169" pageHeight="827" math="0" shadow="0">
      <root>
        <mxCell id="0" />
        <mxCell id="1" parent="0" />
        <mxCell id="Cioo82qsip20XwsOf-3X-1" value="" style="rounded=0;whiteSpace=wrap;html=1;fillColor=#f5f5f5;strokeColor=#666666;fontColor=#333333;fontSize=16;fontStyle=1" vertex="1" parent="1">
          <mxGeometry x="310" y="150" width="370" height="280" as="geometry" />
        </mxCell>
        <mxCell id="Cioo82qsip20XwsOf-3X-2" value="Header" style="rounded=0;whiteSpace=wrap;html=1;fillColor=#dae8fc;strokeColor=#6c8ebf;fontSize=16;fontStyle=1" vertex="1" parent="1">
          <mxGeometry x="310" y="150" width="370" height="30" as="geometry" />
        </mxCell>
        <mxCell id="Cioo82qsip20XwsOf-3X-3" value="Sidebar" style="rounded=0;whiteSpace=wrap;html=1;fillColor=#ffe6cc;strokeColor=#d79b00;fontSize=16;fontStyle=1" vertex="1" parent="1">
          <mxGeometry x="340" y="190" width="60" height="170" as="geometry" />
        </mxCell>
        <mxCell id="Cioo82qsip20XwsOf-3X-4" value="Main Content Area" style="rounded=0;whiteSpace=wrap;html=1;fillColor=#fff2cc;strokeColor=#d6b656;fontSize=16;fontStyle=1" vertex="1" parent="1">
          <mxGeometry x="420" y="190" width="240" height="170" as="geometry" />
        </mxCell>
        <mxCell id="Cioo82qsip20XwsOf-3X-5" value="Footer" style="rounded=0;whiteSpace=wrap;html=1;fontSize=16;fontStyle=1" vertex="1" parent="1">
          <mxGeometry x="310" y="399" width="370" height="30" as="geometry" />
        </mxCell>
        <mxCell id="Cioo82qsip20XwsOf-3X-8" value="" style="shape=curlyBracket;whiteSpace=wrap;html=1;rounded=1;flipH=1;labelPosition=right;verticalLabelPosition=middle;align=left;verticalAlign=middle;fontSize=16;fontStyle=1" vertex="1" parent="1">
          <mxGeometry x="230" y="60" width="20" height="430" as="geometry" />
        </mxCell>
        <mxCell id="Cioo82qsip20XwsOf-3X-9" value="Design Principles" style="rounded=0;whiteSpace=wrap;html=1;fontSize=16;fontStyle=1;fillColor=#dae8fc;gradientColor=#7ea6e0;strokeColor=#6c8ebf;" vertex="1" parent="1">
          <mxGeometry x="90" y="75" width="120" height="60" as="geometry" />
        </mxCell>
        <mxCell id="Cioo82qsip20XwsOf-3X-10" value="Functional Design" style="rounded=0;whiteSpace=wrap;html=1;fontSize=16;fontStyle=1;fillColor=#d5e8d4;gradientColor=#97d077;strokeColor=#82b366;" vertex="1" parent="1">
          <mxGeometry x="90" y="160" width="120" height="60" as="geometry" />
        </mxCell>
        <mxCell id="Cioo82qsip20XwsOf-3X-11" value="Aesthetic Design" style="rounded=0;whiteSpace=wrap;html=1;fontSize=16;fontStyle=1;fillColor=#ffcd28;gradientColor=#ffa500;strokeColor=#d79b00;" vertex="1" parent="1">
          <mxGeometry x="90" y="245" width="120" height="60" as="geometry" />
        </mxCell>
        <mxCell id="Cioo82qsip20XwsOf-3X-12" value="Art of White Space" style="rounded=0;whiteSpace=wrap;html=1;fontSize=16;fontStyle=1;fillColor=#fff2cc;gradientColor=#ffd966;strokeColor=#d6b656;" vertex="1" parent="1">
          <mxGeometry x="90" y="330" width="120" height="60" as="geometry" />
        </mxCell>
        <mxCell id="Cioo82qsip20XwsOf-3X-13" value="Overall Experience" style="rounded=0;whiteSpace=wrap;html=1;fontSize=16;fontStyle=1;fillColor=#f8cecc;gradientColor=#ea6b66;strokeColor=#b85450;" vertex="1" parent="1">
          <mxGeometry x="90" y="413.5" width="120" height="60" as="geometry" />
        </mxCell>
        <mxCell id="Cioo82qsip20XwsOf-3X-14" value="Concise and unified, clear interface, easy operation, coordinated style." style="text;whiteSpace=wrap;fontSize=16;fontStyle=1" vertex="1" parent="1">
          <mxGeometry x="-340" y="85" width="410" height="65" as="geometry" />
        </mxCell>
        <mxCell id="Cioo82qsip20XwsOf-3X-16" value="Practicality, meeting basic operational needs." style="text;whiteSpace=wrap;fontSize=16;fontStyle=1" vertex="1" parent="1">
          <mxGeometry x="-340" y="170" width="370" height="40" as="geometry" />
        </mxCell>
        <mxCell id="Cioo82qsip20XwsOf-3X-17" value="Coordinated color scheme, restrained style, creating a comfortable visual experience." style="text;whiteSpace=wrap;fontSize=16;fontStyle=1" vertex="1" parent="1">
          <mxGeometry x="-340" y="250" width="490" height="40" as="geometry" />
        </mxCell>
        <mxCell id="Cioo82qsip20XwsOf-3X-18" value="Retaining blank areas to enhance sense of space &#xa;and hierarchy, alleviate reading fatigue." style="text;whiteSpace=wrap;fontSize=16;fontStyle=1" vertex="1" parent="1">
          <mxGeometry x="-340" y="330" width="510" height="60" as="geometry" />
        </mxCell>
        <mxCell id="Cioo82qsip20XwsOf-3X-19" value="Clear structure, highlighted focus, &#xa;distinct priorities, high-quality page design." style="text;whiteSpace=wrap;fontSize=16;fontStyle=1" vertex="1" parent="1">
          <mxGeometry x="-340" y="414" width="440" height="40" as="geometry" />
        </mxCell>
      </root>
    </mxGraphModel>
  </diagram>
</mxfile>
